<!-- Made by nesc.design -->
<svg version="1.1" xmlns="http://www.w3.org/2000/svg" xmlns:xlink="http://www.w3.org/1999/xlink" viewBox="0 0 4455 1028">
	<defs>
		<linearGradient id="orange" gradientUnits="userSpaceOnUse" x1="-12.4551" y1="544.1099" x2="544.1158" y2="-12.461">
			<stop offset="0" stop-color="#F89E48" />
			<stop offset="0.1803" stop-color="#F7954C" />
			<stop offset="0.4799" stop-color="#F57B55" />
			<stop offset="0.8597" stop-color="#F15265" />
			<stop offset="1" stop-color="#F0416C" />
		</linearGradient>
		<linearGradient id="indigo" gradientUnits="userSpaceOnUse" x1="483.891" y1="1040.4648" x2="1040.4647" y2="483.8911">
			<stop offset="0" stop-color="#9D2AF2" />
			<stop offset="0.1682" stop-color="#942AF1" />
			<stop offset="0.4479" stop-color="#7A2BEF" />
			<stop offset="0.8023" stop-color="#512DEB" />
			<stop offset="1" stop-color="#372EE8" />
		</linearGradient>
	</defs>
	<circle fill="#020042" cx="514" cy="514" r="104" />
	<path fill="url(#orange)" d="M616.8,102.8c0,56.8-46,102.8-102.8,102.8c-170.3,0-308.4,138.1-308.4,308.4c0,56.8-46,102.8-102.8,102.8C46.9,616.8,1.5,572.2,0,516.7c0-0.9,0-1.8,0-2.7c0-0.9,0-1.8,0-2.7C1.5,229.6,229.6,1.4,511.3,0c0.9,0,1.8,0,2.7,0c0.9,0,1.8,0,2.7,0C572.2,1.4,616.8,46.9,616.8,102.8z" />
	<path fill="url(#indigo)" d="M1028,514c0,0.9,0,1.8,0,2.7c-1.4,281.8-229.5,509.9-511.3,511.3c-0.9,0-1.8,0-2.7,0c-0.9,0-1.8,0-2.7,0c-55.5-1.4-100.2-46.9-100.2-102.8c0-56.8,46-102.8,102.8-102.8c170.3,0,308.4-138.1,308.4-308.4c0-56.8,46-102.8,102.8-102.8c55.9,0,101.4,44.6,102.8,100.1C1028,512.2,1028,513.1,1028,514z" />
	<g fill="#020042">
		<path d="M1523.7,264.3h60.8v394.1h-60.8v-40.5c-22.9,31.9-55.7,47.9-98.5,47.9c-38.7,0-71.7-14.4-99.1-43.1c-27.4-28.7-41.1-63.7-41.1-105c0-41.7,13.7-76.7,41.1-105.3c27.4-28.5,60.4-42.8,99.1-42.8c42.8,0,75.6,15.8,98.5,47.3V264.3zM1371.1,582.1c16.9,17.1,38.1,25.6,63.6,25.6c25.5,0,46.7-8.5,63.6-25.6c16.9-17.1,25.3-38.6,25.3-64.5c0-25.9-8.4-47.4-25.3-64.5c-16.9-17.1-38.1-25.6-63.6-25.6c-25.5,0-46.7,8.5-63.6,25.6c-16.9,17.1-25.3,38.6-25.3,64.5C1345.8,543.6,1354.2,565,1371.1,582.1z" />
		<path d="M1788.3,665.7c-42.4,0-77.8-14.3-106.1-42.8c-28.3-28.5-42.5-63.6-42.5-105.3c0-42,14.2-77.2,42.5-105.6c28.3-28.3,63.7-42.5,106.1-42.5c27.4,0,52.4,6.6,74.9,19.7c22.5,13.1,39.4,30.8,50.7,52.9l-52.4,30.4c-6.4-13.5-16-24.1-29-31.8c-12.9-7.7-27.9-11.5-44.8-11.5c-24.8,0-45.5,8.4-62.2,25.3c-16.7,16.9-25.1,37.9-25.1,63.1c0,25.1,8.3,46.2,25.1,63.1c16.7,16.9,37.4,25.3,62.2,25.3c16.5,0,31.4-3.9,44.8-11.8c13.3-7.9,23.4-18.4,30.1-31.5l52.4,29.8c-12,22.5-29.3,40.3-51.8,53.5C1840.6,659.2,1815.7,665.7,1788.3,665.7z" />
		<path d="M1964.5,516.5V458h208.3v58.5H1964.5z" />
		<path d="M2470.6,376.9h60.8v281.5h-60.8v-40.5c-22.9,31.9-55.7,47.9-98.5,47.9c-38.7,0-71.7-14.4-99.1-43.1c-27.4-28.7-41.1-63.7-41.1-105c0-41.7,13.7-76.7,41.1-105.3c27.4-28.5,60.4-42.8,99.1-42.8c42.8,0,75.6,15.8,98.5,47.3V376.9zM2318,582.1c16.9,17.1,38.1,25.6,63.6,25.6c25.5,0,46.7-8.5,63.6-25.6c16.9-17.1,25.3-38.6,25.3-64.5c0-25.9-8.4-47.4-25.3-64.5c-16.9-17.1-38.1-25.6-63.6-25.6c-25.5,0-46.7,8.5-63.6,25.6c-16.9,17.1-25.3,38.6-25.3,64.5C2292.7,543.6,2301.2,565,2318,582.1z" />
		<path d="M2761.7,369.6c38.7,0,71.7,14.4,99.1,43.1c27.4,28.7,41.1,63.7,41.1,105c0,41.7-13.7,76.8-41.1,105.3c-27.4,28.5-60.4,42.8-99.1,42.8c-42.8,0-75.6-15.8-98.5-47.3V771h-60.8V376.9h60.8v40.5C2686,385.6,2718.9,369.6,2761.7,369.6zM2688.5,582.1c16.9,17.1,38.1,25.6,63.6,25.6c25.5,0,46.7-8.5,63.6-25.6c16.9-17.1,25.3-38.6,25.3-64.5c0-25.9-8.4-47.4-25.3-64.5c-16.9-17.1-38.1-25.6-63.6-25.6c-25.5,0-46.7,8.5-63.6,25.6c-16.9,17.1-25.3,38.6-25.3,64.5C2663.1,543.6,2671.6,565,2688.5,582.1z" />
		<path d="M3014.7,323.1c-7.7,7.7-16.8,11.5-27.3,11.5c-10.5,0-19.6-3.8-27.3-11.5c-7.7-7.7-11.5-16.8-11.5-27.3c0-10.5,3.7-19.6,11.3-27.3c7.5-7.7,16.7-11.5,27.6-11.5c10.9,0,20.1,3.9,27.6,11.5c7.5,7.7,11.3,16.8,11.3,27.3C3026.3,306.4,3022.4,315.5,3014.7,323.1z M2957,658.4V376.9h60.8v281.5H2957z" />
		<path d="M3092.1,516.5V458h208.3v58.5H3092.1z" />
		<path d="M3508.2,665.7c-42.4,0-77.8-14.3-106.1-42.8c-28.3-28.5-42.5-63.6-42.5-105.3c0-42,14.2-77.2,42.5-105.6c28.3-28.3,63.7-42.5,106.1-42.5c27.4,0,52.4,6.6,74.9,19.7c22.5,13.1,39.4,30.8,50.7,52.9l-52.4,30.4c-6.4-13.5-16-24.1-29-31.8c-12.9-7.7-27.9-11.5-44.8-11.5c-24.8,0-45.5,8.4-62.2,25.3c-16.7,16.9-25.1,37.9-25.1,63.1c0,25.1,8.3,46.2,25.1,63.1c16.7,16.9,37.4,25.3,62.2,25.3c16.5,0,31.4-3.9,44.8-11.8c13.3-7.9,23.4-18.4,30.1-31.5l52.4,29.8c-12,22.5-29.3,40.3-51.8,53.5C3560.5,659.2,3535.6,665.7,3508.2,665.7z" />
		<path d="M3807.1,665.7c-41.3,0-76.4-14.3-105.3-42.8c-28.9-28.5-43.3-63.6-43.3-105.3c0-41.7,14.4-76.7,43.3-105.3c28.9-28.5,64-42.8,105.3-42.8c41.7,0,76.8,14.3,105.6,42.8c28.7,28.5,43.1,63.6,43.1,105.3c0,41.7-14.4,76.8-43.1,105.3C3884,651.5,3848.8,665.7,3807.1,665.7z M3744.6,581.3c16.9,16.9,37.7,25.3,62.5,25.3s45.6-8.4,62.5-25.3c16.9-16.9,25.3-38.1,25.3-63.6c0-25.5-8.4-46.7-25.3-63.6c-16.9-16.9-37.7-25.3-62.5-25.3s-45.6,8.4-62.5,25.3c-16.9,16.9-25.3,38.1-25.3,63.6C3719.3,543.2,3727.7,564.4,3744.6,581.3z" />
		<path d="M4071.7,424.2c15.4-34.9,44.3-52.4,86.7-52.4v65.9c-23.3-1.5-43.5,4-60.8,16.6c-17.3,12.6-25.9,33.3-25.9,62.2v141.9h-60.8V376.9h60.8V424.2z" />
		<path d="M4238.3,543.6c4.5,21.4,14.8,37.8,31,49.3c16.1,11.5,35.8,17.2,59.1,17.2c32.3,0,56.5-11.6,72.6-34.9l50.1,29.3c-27.8,40.9-68.9,61.4-123.3,61.4c-45.8,0-82.8-14-110.9-41.9c-28.1-28-42.2-63.3-42.2-106.1c0-42,13.9-77.2,41.7-105.6c27.8-28.3,63.4-42.5,107-42.5c41.3,0,75.2,14.5,101.6,43.3c26.5,28.9,39.7,64,39.7,105.3c0,6.4-0.8,14.8-2.3,25.3H4238.3zM4237.8,494h165.5c-4.1-22.9-13.6-40.2-28.4-51.8c-14.8-11.6-32.2-17.5-52.1-17.5c-22.5,0-41.3,6.2-56.3,18.6C4251.5,455.7,4241.9,472.6,4237.8,494z" />
	</g>
</svg>