<!-- Made by nesc.design -->
<svg version="1.1" xmlns="http://www.w3.org/2000/svg" xmlns:xlink="http://www.w3.org/1999/xlink" viewBox="0 0 1028 1028">
	<defs>
		<linearGradient id="orange" gradientUnits="userSpaceOnUse" x1="-12.4551" y1="544.1099" x2="544.1158" y2="-12.461">
			<stop offset="0" stop-color="#F89E48" />
			<stop offset="0.1803" stop-color="#F7954C" />
			<stop offset="0.4799" stop-color="#F57B55" />
			<stop offset="0.8597" stop-color="#F15265" />
			<stop offset="1" stop-color="#F0416C" />
		</linearGradient>
		<linearGradient id="indigo" gradientUnits="userSpaceOnUse" x1="483.891" y1="1040.4648" x2="1040.4647" y2="483.8911">
			<stop offset="0" stop-color="#9D2AF2" />
			<stop offset="0.1682" stop-color="#942AF1" />
			<stop offset="0.4479" stop-color="#7A2BEF" />
			<stop offset="0.8023" stop-color="#512DEB" />
			<stop offset="1" stop-color="#372EE8" />
		</linearGradient>
	</defs>
	<circle fill="#020042" cx="514" cy="514" r="104" />
	<path fill="url(#orange)" d="M616.8,102.8c0,56.8-46,102.8-102.8,102.8c-170.3,0-308.4,138.1-308.4,308.4c0,56.8-46,102.8-102.8,102.8C46.9,616.8,1.5,572.2,0,516.7c0-0.9,0-1.8,0-2.7c0-0.9,0-1.8,0-2.7C1.5,229.6,229.6,1.4,511.3,0c0.9,0,1.8,0,2.7,0c0.9,0,1.8,0,2.7,0C572.2,1.4,616.8,46.9,616.8,102.8z" />
	<path fill="url(#indigo)" d="M1028,514c0,0.9,0,1.8,0,2.7c-1.4,281.8-229.5,509.9-511.3,511.3c-0.9,0-1.8,0-2.7,0c-0.9,0-1.8,0-2.7,0c-55.5-1.4-100.2-46.9-100.2-102.8c0-56.8,46-102.8,102.8-102.8c170.3,0,308.4-138.1,308.4-308.4c0-56.8,46-102.8,102.8-102.8c55.9,0,101.4,44.6,102.8,100.1C1028,512.2,1028,513.1,1028,514z" />
</svg>